# xmcd
#
# Track frame offsets: 
#        150
#        18786
#        32259
#        50368
#        74614
#        90644
#        101415
#        120593
#        139556
#        151043
#        166018
#        180900
#        199193
#        211751
#
# Disc length: 3037 seconds
#
# Revision: 0
# Processed by: cddbd v1.5.2PL0 Copyright (c) Steve Scherf et al.
# Submitted via: ExactAudioCopyFreeDBPlugin 1.0
#
DISCID=9f0bdb0e
DTITLE=Banned in Boston - Godfather Finest
DYEAR=2014
DGENRE=Blues
TTITLE0=Why don't you do right
TTITLE1=Bei mir bist du schön
TTITLE2=Goodnight Moon
TTITLE3=Summertime
TTITLE4=Fly me to the moon
TTITLE5=Pink Papermoon
TTITLE6=Diamonds are girls best friend
TTITLE7=Sunny
TTITLE8=Swinging on a star
TTITLE9=Mack the knife
TTITLE10=Dream a little dream
TTITLE11=Minnie the moocher
TTITLE12=Dankeschoen
TTITLE13=The world is not enough (World Domination Mix)
EXTD=
EXTT0=
EXTT1=
EXTT2=
EXTT3=
EXTT4=
EXTT5=
EXTT6=
EXTT7=
EXTT8=
EXTT9=
EXTT10=
EXTT11=
EXTT12=
EXTT13=
PLAYORDER=
